<?xml version="1.0" encoding="UTF-8"?><svg id="a" xmlns="http://www.w3.org/2000/svg" viewBox="0 0 53.06 68.01"><path d="M36.44,65h-14.47c-1.78,0-3.57,.03-5.35,0-4.1-.06-7.63-2.9-8.45-6.95-.25-1.23-.15-2.56-.15-3.81V16.5l-1.5,1.5H46.53l-1.5-1.5V55.63c0,1.42-.1,2.8-.67,4.13-1.35,3.19-4.49,5.18-7.92,5.24-1.93,.03-1.93,3.03,0,3,6.39-.11,11.49-5.22,11.58-11.61,.03-2.1,0-4.2,0-6.31V16.5c0-.81-.69-1.5-1.5-1.5H6.53c-.81,0-1.5,.69-1.5,1.5v30.01c0,3.56-.26,7.22,.04,10.77,.39,4.62,3.45,8.59,7.83,10.11,2.14,.74,4.4,.61,6.63,.61h16.92c1.93,0,1.93-3,0-3Z"/><path d="M51.53,15H1.53l1.5,1.5c0-2.01-.1-4.04,0-6.05,.09-1.83,1.49-2.45,3.08-2.45H46.2c1.51,0,3.28-.07,3.76,1.82,.25,1.01,.07,2.24,.07,3.27v3.42c0,1.93,3,1.93,3,0,0-2.03,.07-4.07,0-6.1-.11-3.17-2.56-5.37-5.68-5.4-3.62-.04-7.23,0-10.85,0H6.25c-2.6,0-5.06,1.03-5.95,3.71C-.13,10,.03,11.5,.03,12.84v3.66c0,.81,.69,1.5,1.5,1.5H51.53c1.93,0,1.93-3,0-3Z"/><path d="M36.53,0H16.53c-.81,0-1.5,.69-1.5,1.5V6.5c0,.81,.69,1.5,1.5,1.5h20c.81,0,1.5-.69,1.5-1.5V1.5c0-1.93-3-1.93-3,0V6.5l1.5-1.5H16.53l1.5,1.5V1.5l-1.5,1.5h20c1.93,0,1.93-3,0-3Z"/><path d="M15.03,26.5v30c0,1.93,3,1.93,3,0V26.5c0-1.93-3-1.93-3,0h0Z"/><path d="M25.03,26.5v30c0,1.93,3,1.93,3,0V26.5c0-1.93-3-1.93-3,0h0Z"/><path d="M35.03,26.5v30c0,1.93,3,1.93,3,0V26.5c0-1.93-3-1.93-3,0h0Z"/></svg>