<?xml version="1.0" encoding="UTF-8"?><svg id="a" xmlns="http://www.w3.org/2000/svg" viewBox="0 0 90.54 90.51"><g><path d="M23.81,47.75l18.75,22.5c4.12,4.95,11.17-2.16,7.07-7.07l-18.75-22.5c-4.12-4.95-11.17,2.16-7.07,7.07h0Z"/><path d="M52.53,20.38l-11.25,45c-1.56,6.24,8.08,8.91,9.64,2.66l11.25-45c1.56-6.24-8.08-8.91-9.64-2.66h0Z"/></g><path d="M80.54,45.28c-.25,14.74-9.31,28.31-23.4,33.27s-29.6,.62-39.07-10.67c-9.44-11.26-10.75-27.77-3.34-40.43S37.43,7.69,52.02,10.61c16.59,3.32,28.24,17.92,28.52,34.68,.11,6.43,10.11,6.45,10,0-.32-18.87-11.78-35.72-29.51-42.46C43.43-3.87,22.6,1.64,10.57,16.1S-3.53,51.72,6.09,68.15s29.13,25.09,47.92,21.57c21.23-3.98,36.16-23.2,36.52-44.44,.11-6.44-9.89-6.44-10,0Z"/></svg>