<?xml version="1.0" encoding="UTF-8"?><svg id="Lag_1" xmlns="http://www.w3.org/2000/svg" viewBox="0 0 42.18 9.97"><defs><style>.cls-1{fill:#1d1d1b;}</style></defs><path class="cls-1" d="M0,4.99C0,2.06,1.98,0,4.75,0s4.67,2.06,4.67,4.99-1.82,4.99-4.75,4.99C1.9,9.97,0,7.84,0,4.99Z"/><path class="cls-1" d="M16.38,4.99c0-2.93,1.98-4.99,4.75-4.99s4.67,2.06,4.67,4.99-1.82,4.99-4.75,4.99c-2.77,0-4.67-2.14-4.67-4.99Z"/><path class="cls-1" d="M32.77,4.99c0-2.93,1.98-4.99,4.75-4.99s4.67,2.06,4.67,4.99-1.82,4.99-4.75,4.99c-2.77,0-4.67-2.14-4.67-4.99Z"/></svg>