<?xml version="1.0" encoding="UTF-8"?><svg id="a" xmlns="http://www.w3.org/2000/svg" viewBox="0 0 40.96 40.94"><path d="M5.43,28.44l7.07,7.07c.57,.57,1.55,.57,2.12,0l18.78-18.78,2.69-2.69c.57-.57,.57-1.55,0-2.12l-7.07-7.07c-.57-.57-1.55-.57-2.12,0L8.12,23.63l-2.69,2.69c-1.37,1.37,.75,3.49,2.12,2.12L26.33,9.67l2.69-2.69h-2.12l7.07,7.07v-2.12L15.19,30.7l-2.69,2.69h2.12l-7.07-7.07c-1.37-1.37-3.49,.75-2.12,2.12Z"/><g><path d="M2.79,40.21l4.38-8.76,.62-1.24c.36-.72,.19-1.62-.54-2.05-.66-.39-1.69-.19-2.05,.54L.82,37.45l-.62,1.24c-.36,.72-.19,1.62,.54,2.05,.66,.39,1.69,.19,2.05-.54h0Z"/><path d="M10.73,33.16L1.97,37.54l-1.24,.62c-.72,.36-.93,1.39-.54,2.05,.43,.74,1.33,.9,2.05,.54l8.76-4.38,1.24-.62c.72-.36,.93-1.39,.54-2.05-.43-.74-1.33-.9-2.05-.54h0Z"/></g><path d="M35.48,12.53l-6.2-6.2-.88-.88v2.12l2.6-2.6c.33-.33,.66-.67,.99-.99s.45-.42,.93-.67c.02,0,.45-.19,.18-.09,.14-.05,.28-.1,.42-.13s.28-.07,.43-.1c-.29,.06,.11-.01,.18-.01,.29-.02,.58-.01,.87,.03-.32-.05,.15,.04,.17,.05,.14,.03,.28,.08,.42,.12,.03,0,.27,.1,.05,0,.14,.06,.27,.13,.4,.2s.26,.15,.38,.24c.14,.1,.16,.12,.06,.04,.08,.07,.16,.13,.23,.2,.38,.35,.53,.52,.75,.89,.08,.13,.14,.26,.21,.39,.14,.27,.04,.11,.02,.05,.05,.14,.1,.28,.13,.42,.01,.05,.13,.62,.08,.31,.04,.26,.04,.53,.03,.8,0,.12-.01,.24-.03,.36,.05-.32-.04,.15-.05,.17-.03,.14-.08,.28-.12,.42-.11,.41,.12-.2-.07,.19-.13,.27-.28,.53-.46,.77,.12-.16-.23,.25-.27,.29-.03,.03-.06,.06-.09,.09-.17,.18-.35,.35-.52,.52l-2.98,2.98c-1.37,1.37,.75,3.49,2.12,2.12l2.89-2.89c.48-.48,.95-.93,1.35-1.48,.84-1.12,1.29-2.58,1.23-3.98-.13-2.88-2.26-5.56-5.12-6.16-1.49-.31-2.99-.12-4.35,.56-.75,.37-1.36,.93-1.95,1.52l-3.24,3.24c-.57,.57-.57,1.55,0,2.12l6.2,6.2,.88,.88c1.37,1.37,3.49-.75,2.12-2.12Z"/></svg>