<?xml version="1.0" encoding="UTF-8"?><svg id="a" xmlns="http://www.w3.org/2000/svg" viewBox="0 0 48.31 49.17"><path d="M29.36,26.17H14.65c-3.29,0-6.41,.68-9.1,2.69C2.04,31.48,.06,35.54,.01,39.91-.02,42.49,.01,45.08,.01,47.67c0,.81,.69,1.5,1.5,1.5H41.51c.81,0,1.5-.69,1.5-1.5,0-3.43,.37-7.1-.26-10.49-1.19-6.39-6.99-10.92-13.39-11.01-1.93-.03-1.93,2.97,0,3,5.58,.08,10.4,4.46,10.64,10.13,.12,2.78,.01,5.59,.01,8.37l1.5-1.5H1.51l1.5,1.5v-6.97c0-3.48,1.03-6.62,3.72-8.97,2.26-1.97,5.01-2.56,7.92-2.56h14.71c1.93,0,1.93-3,0-3Z"/><path d="M28.94,12.07c-.04,3.42-1.63,7.13-4.93,8.58-3.04,1.33-6.36-.09-8.14-2.73-2.07-3.06-2.34-7.32-.64-10.61,1.46-2.83,4.44-4.98,7.74-4.16,3.94,.98,5.93,5.15,5.98,8.92,.02,1.93,3.02,1.93,3,0-.06-4.71-2.43-9.53-6.95-11.4-4.27-1.76-8.85,.09-11.47,3.69-2.9,3.98-3.11,9.65-.88,13.98,2.05,3.99,6.37,6.55,10.87,5.6,5.39-1.14,8.37-6.73,8.44-11.87,.02-1.93-2.98-1.93-3,0Z"/><path d="M36.81,21.5h10c.78,0,1.54-.69,1.5-1.5s-.66-1.5-1.5-1.5h-10c-.78,0-1.54,.69-1.5,1.5s.66,1.5,1.5,1.5h0Z"/><g><path d="M40.75,16.06l4.38,4.38,.62,.62c.56,.56,1.57,.6,2.12,0s.59-1.53,0-2.12l-4.38-4.38-.62-.62c-.56-.56-1.57-.6-2.12,0s-.59,1.53,0,2.12h0Z"/><path d="M42.87,26.06l4.38-4.38,.62-.62c.56-.56,.6-1.57,0-2.12s-1.53-.59-2.12,0l-4.38,4.38-.62,.62c-.56,.56-.6,1.57,0,2.12s1.53,.59,2.12,0h0Z"/></g></svg>