<?xml version="1.0" encoding="UTF-8"?>
<svg id="Layer_1" data-name="Layer 1" xmlns="http://www.w3.org/2000/svg" viewBox="0 0 46.13 20.95">
  <defs>
    <style>
      .cls-1 {
        fill: #261f8b;
      }
    </style>
  </defs>
  <path class="cls-1" d="m16.47,20.95c-.89,0-1.59-.18-2.1-.54-.51-.36-.88-.87-1.09-1.54-.21-.67-.32-1.45-.32-2.35v-3.49c0-.9.11-1.68.32-2.35s.58-1.18,1.09-1.54c.51-.36,1.21-.54,2.1-.54s1.58.18,2.09.54c.5.36.87.87,1.08,1.54.22.66.32,1.45.32,2.35v3.49c0,.9-.11,1.68-.32,2.35-.21.66-.58,1.18-1.08,1.54-.51.36-1.2.54-2.09.54Zm0-1.64c.43,0,.73-.13.9-.38.17-.25.28-.58.31-.99.03-.41.05-.83.05-1.28v-3.76c0-.46-.02-.89-.05-1.29-.04-.4-.14-.73-.31-.99-.17-.26-.48-.38-.9-.38s-.74.13-.92.38-.29.59-.32.99-.05.83-.05,1.29v3.76c0,.44.02.87.05,1.28.03.41.14.74.32.99.18.25.49.38.92.38Z"/>
  <path class="cls-1" d="m24.79,20.95c-1.01,0-1.77-.37-2.26-1.11-.5-.74-.75-2-.75-3.77v-2.33c0-.92.08-1.76.23-2.55.15-.78.44-1.41.86-1.88s1.04-.71,1.86-.71c.4,0,.77.09,1.1.27.33.18.63.4.89.66V3.95h2.22v16.84h-2.22v-.77c-.26.28-.55.5-.86.67-.31.17-.67.26-1.07.26Zm.56-1.75c.21,0,.43-.04.67-.12.23-.07.47-.19.71-.34v-7.88c-.2-.14-.41-.26-.65-.36-.23-.1-.49-.16-.77-.16-.51,0-.86.25-1.04.74-.18.49-.27,1.08-.27,1.78v3.39c0,.55.03,1.06.09,1.51.06.45.19.81.39,1.06s.48.38.87.38Z"/>
  <path class="cls-1" d="m34.49,20.95c-.89,0-1.59-.18-2.1-.54-.51-.36-.88-.87-1.09-1.54-.21-.67-.32-1.45-.32-2.35v-3.49c0-.9.11-1.68.32-2.35.22-.66.58-1.18,1.09-1.54.51-.36,1.21-.54,2.1-.54s1.58.18,2.09.54c.5.36.87.87,1.08,1.54.22.66.32,1.45.32,2.35v3.49c0,.9-.11,1.68-.32,2.35-.21.66-.58,1.18-1.08,1.54-.51.36-1.2.54-2.09.54Zm0-1.64c.43,0,.73-.13.91-.38.17-.25.28-.58.31-.99.03-.41.05-.83.05-1.28v-3.76c0-.46-.02-.89-.05-1.29s-.14-.73-.31-.99c-.18-.26-.48-.38-.91-.38s-.73.13-.91.38-.29.59-.32.99-.05.83-.05,1.29v3.76c0,.44.02.87.05,1.28.03.41.14.74.32.99.18.25.48.38.91.38Z"/>
  <path class="cls-1" d="m42.81,20.95c-.98,0-1.78-.31-2.37-.92-.6-.62-.93-1.43-1.02-2.44l1.85-.56c.11.76.3,1.33.56,1.72.26.38.65.57,1.16.57.4,0,.71-.12.91-.34.21-.23.31-.54.31-.93,0-.35-.08-.66-.23-.94s-.4-.56-.75-.85l-2.06-1.77c-.42-.36-.77-.76-1.05-1.2-.28-.44-.43-1.02-.43-1.73,0-.64.13-1.17.39-1.61s.62-.77,1.08-1c.46-.23,1.01-.34,1.63-.34.95,0,1.68.31,2.19.93.5.62.79,1.36.86,2.23l-1.5.56c-.06-.42-.14-.78-.25-1.09-.11-.31-.26-.55-.46-.73-.2-.17-.45-.26-.77-.26-.36,0-.65.12-.86.36-.21.24-.32.53-.32.86,0,.21.04.41.14.61.09.2.25.4.47.59l2.12,1.95c.29.26.57.55.82.85.25.31.47.65.63,1.04s.25.84.25,1.35c0,.68-.14,1.25-.42,1.71-.28.46-.67.8-1.16,1.03-.5.23-1.08.34-1.75.34Z"/>
  <polygon class="cls-1" points="9.43 0 9.43 2.16 13.9 2.16 4.61 18.81 1.54 15.74 0 17.28 3.5 20.79 3.5 20.79 3.5 20.79 5.92 20.79 16.31 2.16 46.13 2.16 46.13 0 9.43 0"/>
</svg>