<?xml version="1.0" encoding="utf-8"?>
<!-- Generator: Adobe Illustrator 27.0.0, SVG Export Plug-In . SVG Version: 6.00 Build 0)  -->
<svg version="1.1" id="Lag_1" xmlns="http://www.w3.org/2000/svg" xmlns:xlink="http://www.w3.org/1999/xlink" x="0px" y="0px"
	 viewBox="0 0 47.1 57.2" style="enable-background:new 0 0 47.1 57.2;" xml:space="preserve">
<path d="M17.9,48.2h13.8c0,0.5,0,1,0,1.5c-0.1,1.6-0.6,3.1-1.5,4.5c-1,1.4-2.2,2.6-4,2.9c-1.9,0.4-3.7,0.1-5.3-1.2
	c-1.2-1.1-2.1-2.4-2.6-3.9C18,50.7,17.9,49.5,17.9,48.2L17.9,48.2z M19.4,49.7c0.1,0.8,0.2,1.6,0.5,2.3c0.4,0.9,0.9,1.8,1.6,2.5
	c1,0.9,2.1,1.3,3.4,1.3c1.4,0,2.6-0.7,3.5-1.7c0.8-0.9,1.3-1.9,1.5-3c0.1-0.4,0.2-0.9,0.3-1.4L19.4,49.7L19.4,49.7z"/>
<path d="M47,44.6c-0.2-1-0.6-1.9-1-2.8c-1.1-2.7-2.5-5.3-4.2-7.6c-1.1-1.6-2.4-3-3.8-4.3c-0.2-0.1-0.2-0.3-0.2-0.5c0-2.7,0-5.3,0-8
	v-1.2l0,0c0-1,0-1.9,0-2.9c0-2.4-0.5-4.6-1.7-6.7c-1.4-2.5-3.4-4.3-5.9-5.5c0,0-1.2-0.5-1.2-0.5c-0.2-0.1-0.4-0.1-0.6-0.2
	c-0.2,0-0.2-0.1-0.3-0.3c-0.3-0.7-0.6-1.4-1.1-2c-1.5-1.9-4.2-1.9-5.8-0.5c-0.7,0.7-1.3,1.5-1.6,2.5c0,0.1-0.1,0.2-0.3,0.3
	c-0.5,0.2-1.1,0.3-1.6,0.6C15,6.1,12.8,8,11.3,10.6c-1.2,2-1.7,4.3-1.7,6.7c0,3.9,0,7.8,0,11.7c0,0.5,0,1-0.5,1.3c0,0,0,0,0,0.1
	c-1,1-1.9,2.1-2.7,3.2c-1.2,1.6-2.2,3.3-3.1,5c-0.5,1.1-1,2.2-1.5,3.2c-0.4,0.8-0.7,1.7-1,2.6c-0.3,1.1,0.1,2.2,1.2,2.6
	c0.4,0.2,0.8,0.2,1.2,0.2c2.7,0,5.4,0,8.1,0c6.2,0,12.4,0,18.6,0c4.9,0,9.8,0,14.7,0c0.2,0,0.3,0,0.5,0C46.5,47.1,47.4,46,47,44.6
	L47,44.6z M44.8,45.8c-5.7,0-11.4,0-17.1,0c-8.2,0-16.5,0-24.7,0c-0.9,0-1.1-0.4-0.9-1.2c0,0,0,0,0-0.1c0.5-1.3,1-2.7,1.6-4
	c0.9-1.8,1.9-3.6,3-5.2c1.2-1.7,2.5-3.3,4-4.7c0.1-0.1,0.2-0.3,0.2-0.4c0-4.3,0-8.5,0-12.8c0-0.8,0.1-1.6,0.2-2.4
	c0.3-1.7,1-3.2,1.9-4.5c0.8-1.2,1.9-2.2,3.1-3c1.3-0.9,2.7-1.5,4.2-1.8c0.2,0,0.3-0.1,0.3-0.3c0.2-0.7,0.4-1.4,0.9-2
	c0.7-1,1.5-1.4,2.8-1.2c0.7,0.1,1.2,0.6,1.6,1.2c0.4,0.6,0.7,1.3,0.9,2c0,0.1,0.1,0.2,0.2,0.2c0.7,0.2,1.3,0.4,2,0.6
	c0.5,0.2,1.4,0.7,2,1.1c1.2,0.9,2.2,1.8,3.1,3c1,1.4,1.6,2.9,1.9,4.5c0.1,0.8,0.2,1.6,0.2,2.4c0,1,0,2,0,3c0,0,0,0.1,0,0.1
	c0,0.4,0,0.7,0,1.1c0,2.9,0,5.7,0,8.6c0,0.1,0.1,0.3,0.2,0.3c0.5,0.4,1,0.8,1.4,1.3c0.8,0.9,1.6,1.8,2.4,2.8
	c0.8,1.1,1.5,2.2,2.2,3.4c1,1.6,1.7,3.3,2.4,5c0.2,0.6,0.5,1.2,0.7,1.8C45.8,45.5,45.5,45.8,44.8,45.8L44.8,45.8z"/>
</svg>
