<?xml version="1.0" encoding="UTF-8"?><svg id="a" xmlns="http://www.w3.org/2000/svg" viewBox="0 0 55.04 55"><defs><style>.b{stroke-linejoin:round;}.b,.c{fill:none;stroke:#000;stroke-width:2px;}.c{stroke-miterlimit:10;}</style></defs><path class="b" d="M44.33,32.31l8-.97c.98-.12,1.71-.95,1.7-1.94l-.04-4.29c0-.99-.76-1.81-1.74-1.91l-8.01-.82c-.34-1.13-.8-2.21-1.35-3.22l5.02-6.29c.61-.77,.55-1.88-.14-2.58l-3.04-3.04c-.7-.7-1.81-.76-2.58-.14l-6.29,5.02c-1.07-.58-2.2-1.05-3.39-1.4l-.9-8.01c-.11-.98-.94-1.72-1.92-1.72h-4.29c-.99,0-1.81,.74-1.92,1.72l-.9,8.01c-1.24,.37-2.41,.86-3.52,1.47l-6.34-4.97c-.78-.61-1.88-.54-2.57,.17l-3.01,3.06c-.69,.7-.74,1.81-.12,2.58l5.08,6.25c-.57,1.07-1.02,2.21-1.36,3.4l-8,.97c-.98,.12-1.71,.95-1.7,1.94l.04,4.29c0,.99,.76,1.81,1.74,1.91l8.01,.82c.34,1.13,.8,2.21,1.35,3.22l-5.02,6.29c-.61,.77-.55,1.88,.14,2.58l3.04,3.04c.7,.7,1.81,.76,2.58,.14l6.29-5.02c1.07,.58,2.2,1.05,3.39,1.4l.9,8.01c.11,.98,.94,1.72,1.92,1.72h4.29c.99,0,1.81-.74,1.92-1.72l.9-8.01c1.24-.37,2.41-.86,3.52-1.47l6.34,4.97c.78,.61,1.88,.54,2.57-.17l3.01-3.06c.69-.7,.74-1.81,.12-2.58l-5.08-6.25c.57-1.07,1.02-2.21,1.36-3.4Z"/><circle class="c" cx="27.52" cy="27.5" r="10.64"/></svg>