<?xml version="1.0" encoding="UTF-8"?><svg id="a" xmlns="http://www.w3.org/2000/svg" viewBox="0 0 58.01 49.17"><g><path d="M44.36,24.3c-4.53,0-9.17-.42-13.14,2.21-2.72,1.79-4.76,4.51-5.67,7.65-.63,2.17-.53,4.41-.53,6.64,0,.81,.69,1.5,1.5,1.5h30c.81,0,1.5-.69,1.5-1.5,0-3.6-.11-7.01-2.12-10.16-2.53-3.94-6.87-6.28-11.53-6.34-1.93-.03-1.93,2.97,0,3,3.84,.05,7.37,2.06,9.28,5.42,1.45,2.55,1.37,5.26,1.37,8.08l1.5-1.5H26.51l1.5,1.5c0-1.84-.13-3.72,.34-5.52,.71-2.73,2.5-5.1,4.94-6.53,3.33-1.95,7.36-1.45,11.07-1.45,1.93,0,1.93-3,0-3Z"/><path d="M46.71,14.11c-.03,2.41-1.13,5.07-3.47,6.09-2.08,.91-4.39-.05-5.64-1.89-1.48-2.19-1.7-5.22-.48-7.58,1.03-2,3.1-3.52,5.38-2.95,2.79,.69,4.18,3.66,4.21,6.33,.02,1.93,3.02,1.93,3,0-.05-3.71-1.93-7.46-5.49-8.91-3.37-1.38-6.97,.11-9.03,2.94-2.25,3.1-2.39,7.5-.66,10.86,1.62,3.15,5.04,5.12,8.58,4.37,4.2-.89,6.55-5.25,6.6-9.27,.02-1.93-2.98-1.93-3,0Z"/></g><g><g><path d="M29.36,27.67H13.66c-6.71,0-12.15,5.44-12.15,12.15v7.85H41.51v-7.85c0-6.71-5.44-12.15-12.15-12.15Z"/><path d="M29.36,26.17H14.65c-3.29,0-6.41,.68-9.1,2.69C2.04,31.48,.06,35.54,.01,39.91-.02,42.49,.01,45.08,.01,47.67c0,.81,.69,1.5,1.5,1.5H41.51c.81,0,1.5-.69,1.5-1.5,0-3.43,.37-7.1-.26-10.49-1.19-6.39-6.99-10.92-13.39-11.01-1.93-.03-1.93,2.97,0,3,5.58,.08,10.4,4.46,10.64,10.13,.12,2.78,.01,5.59,.01,8.37l1.5-1.5H1.51l1.5,1.5v-6.97c0-3.48,1.03-6.62,3.72-8.97,2.26-1.97,5.01-2.56,7.92-2.56h14.71c1.93,0,1.93-3,0-3Z"/></g><g><ellipse cx="21.53" cy="12.07" rx="8.91" ry="10.59"/><path d="M28.94,12.07c-.04,3.42-1.63,7.13-4.93,8.58-3.04,1.33-6.36-.09-8.14-2.73-2.07-3.06-2.34-7.32-.64-10.61,1.46-2.83,4.44-4.98,7.74-4.16,3.94,.98,5.93,5.15,5.98,8.92,.02,1.93,3.02,1.93,3,0-.06-4.71-2.43-9.53-6.95-11.4-4.27-1.76-8.85,.09-11.47,3.69-2.9,3.98-3.11,9.65-.88,13.98,2.05,3.99,6.37,6.55,10.87,5.6,5.39-1.14,8.37-6.73,8.44-11.87,.02-1.93-2.98-1.93-3,0Z"/></g></g></svg>