<?xml version="1.0" encoding="UTF-8"?><svg id="a" xmlns="http://www.w3.org/2000/svg" viewBox="0 0 46.01 40.99"><path d="M3,40.99H43c3.86,0,3.87-6,0-6H3c-3.86,0-3.87,6,0,6h0Z"/><path d="M40,22.99v15c0,1.57,1.38,3.07,3,3s3-1.32,3-3v-15c0-1.57-1.38-3.07-3-3s-3,1.32-3,3h0Z"/><path d="M0,22.99v15c0,1.57,1.38,3.07,3,3s3-1.32,3-3v-15c0-1.57-1.38-3.07-3-3S0,21.3,0,22.99H0Z"/><path d="M13,19.99H3C1.43,19.99-.07,21.37,0,22.99s1.32,3,3,3H13c1.57,0,3.07-1.38,3-3s-1.32-3-3-3h0Z"/><path d="M33,25.99h10c1.57,0,3.07-1.38,3-3s-1.32-3-3-3h-10c-1.57,0-3.07,1.38-3,3s1.32,3,3,3h0Z"/><path d="M26,27.99V7.99c0-1.57-1.38-3.07-3-3s-3,1.32-3,3V27.99c0,1.57,1.38,3.07,3,3s3-1.32,3-3h0Z"/><path d="M15.12,15.11L23.88,6.35l1.25-1.25c1.11-1.11,1.19-3.15,0-4.24s-3.06-1.19-4.24,0L12.13,9.62l-1.25,1.25c-1.11,1.11-1.19,3.15,0,4.24s3.06,1.19,4.24,0h0Z"/><path d="M35.12,10.86L26.37,2.11l-1.25-1.25c-1.11-1.11-3.15-1.19-4.24,0s-1.19,3.06,0,4.24l8.75,8.75,1.25,1.25c1.11,1.11,3.15,1.19,4.24,0s1.19-3.06,0-4.24h0Z"/></svg>