<?xml version="1.0" encoding="UTF-8"?><svg id="a" xmlns="http://www.w3.org/2000/svg" viewBox="0 0 26.94 28.3"><g><path d="M.25,4.45l1.61,2.39,.23,.34c.16,.24,.38,.44,.67,.52,.27,.07,.63,.04,.87-.11s.45-.39,.52-.67,.06-.62-.11-.87l-1.61-2.39-.23-.34c-.16-.24-.38-.44-.67-.52-.27-.07-.63-.04-.87,.11s-.45,.39-.52,.67-.06,.62,.11,.87H.25Z"/><path d="M4.62,.54L2.42,5.37l-.31,.69c-.24,.53-.17,1.24,.4,1.54,.49,.26,1.28,.17,1.54-.4L6.25,2.37l.31-.69c.24-.53,.17-1.24-.4-1.54-.49-.26-1.28-.17-1.54,.4h0Z"/></g><path d="M10.59,5.94h15.26c1.45,0,1.45-2.25,0-2.25H10.59c-1.45,0-1.45,2.25,0,2.25h0Z"/><path d="M10.59,16.42h15.26c1.45,0,1.45-2.25,0-2.25H10.59c-1.45,0-1.45,2.25,0,2.25h0Z"/><path d="M10.52,26.42h15.26c1.45,0,1.45-2.25,0-2.25H10.52c-1.45,0-1.45,2.25,0,2.25h0Z"/><path d="M4.95,14.78c0,.07,0,.14,0,.21,0,.15,0,.03,0,0-.02,.11-.04,.22-.08,.32-.02,.06-.04,.13-.07,.19,.01-.03,.06-.12,0,0s-.13,.23-.2,.33c-.11,.17,.06-.07-.02,.03-.04,.04-.07,.08-.11,.12-.03,.04-.26,.23-.14,.14-.09,.07-.18,.12-.27,.18-.04,.02-.08,.04-.12,.06-.08,.04-.08,.04,0,0-.03,.01-.06,.02-.09,.03-.11,.03-.21,.07-.32,.09-.04,0-.19,.03-.03,.01-.06,0-.11,.01-.17,.01-.12,0-.23,0-.34,0-.13,0,.17,.04-.04,0-.07-.02-.13-.03-.19-.05s-.13-.04-.19-.06c-.03,0-.13-.06,0,0-.1-.05-.19-.1-.29-.16-.05-.03-.09-.06-.13-.09-.1-.07,.12,.12-.02-.02-.09-.09-.18-.18-.27-.28,.09,.1,.02,.02,0,0-.04-.05-.07-.11-.11-.16-.03-.04-.16-.32-.1-.17-.04-.1-.07-.21-.1-.31-.01-.04-.02-.09-.03-.13-.01-.09-.02-.09,0,0,0-.03,0-.07,0-.1,0-.1,0-.21,0-.31,0-.02,.03-.24,0-.07,0-.04,.02-.09,.03-.13,.02-.11,.06-.21,.09-.32,.06-.19-.07,.12,.03-.06,.03-.06,.06-.12,.09-.17,.03-.05,.06-.09,.09-.14,.02-.03,.11-.14,.02-.03,.07-.08,.14-.16,.22-.23,0,0,.16-.14,.07-.07s.08-.06,.08-.06c.11-.07,.22-.13,.34-.19-.03,.01-.13,.04,0,0,.06-.02,.12-.04,.19-.06,.04-.01,.09-.02,.13-.03,0,0,.21-.04,.1-.02s.11,0,.1,0c.06,0,.12,0,.17,0s.11,0,.17,0c.18,0-.09-.03,.07,.01,.13,.03,.26,.07,.38,.11,.2,.06-.08-.04,.03,.01,.07,.03,.14,.07,.2,.11,.04,.02,.07,.05,.11,.07,.04,.02,.07,.05,.11,.07-.07-.05-.07-.05,0,0,.08,.08,.15,.15,.23,.23,.14,.14-.07-.12,.04,.05,.04,.05,.07,.11,.11,.16s.06,.11,.09,.17c.08,.14-.03-.1,.03,.06,.04,.13,.07,.25,.11,.38,0,.03,.02,.14,0,0,0,.09,.01,.18,.02,.27,0,.39,.34,.77,.75,.75s.76-.33,.75-.75c-.02-1.37-.87-2.56-2.14-3.04s-2.72-.06-3.55,.95-1.03,2.55-.32,3.74,2.08,1.76,3.42,1.52c1.5-.27,2.57-1.67,2.59-3.17,0-.39-.35-.77-.75-.75s-.74,.33-.75,.75Z"/><path d="M4.99,25.08c0,.07,0,.14,0,.21,0,.15,0,.03,0,0-.02,.11-.04,.22-.08,.32-.02,.06-.04,.13-.07,.19,.01-.03,.06-.12,0,0s-.13,.23-.2,.33c-.11,.17,.06-.07-.02,.03-.04,.04-.07,.08-.11,.12-.03,.04-.26,.23-.14,.14-.09,.07-.18,.12-.27,.18-.04,.02-.08,.04-.12,.06-.08,.04-.08,.04,0,0-.03,.01-.06,.02-.09,.03-.11,.03-.21,.07-.32,.09-.04,0-.19,.03-.03,.01-.06,0-.11,.01-.17,.01-.12,0-.23,0-.34,0-.13,0,.17,.04-.04,0-.07-.02-.13-.03-.19-.05s-.13-.04-.19-.06c-.03,0-.13-.06,0,0-.1-.05-.19-.1-.29-.16-.05-.03-.09-.06-.13-.09-.1-.07,.12,.12-.02-.02-.09-.09-.18-.18-.27-.28,.09,.1,.02,.02,0,0-.04-.05-.07-.11-.11-.16-.03-.04-.16-.32-.1-.17-.04-.1-.07-.21-.1-.31-.01-.04-.02-.09-.03-.13-.01-.09-.02-.09,0,0,0-.03,0-.07,0-.1,0-.1,0-.21,0-.31,0-.02,.03-.24,0-.07,0-.04,.02-.09,.03-.13,.02-.11,.06-.21,.09-.32,.06-.19-.07,.12,.03-.06,.03-.06,.06-.12,.09-.17,.03-.05,.06-.09,.09-.14,.02-.03,.11-.14,.02-.03,.07-.08,.14-.16,.22-.23,0,0,.16-.14,.07-.07s.08-.06,.08-.06c.11-.07,.22-.13,.34-.19-.03,.01-.13,.04,0,0,.06-.02,.12-.04,.19-.06,.04-.01,.09-.02,.13-.03,0,0,.21-.04,.1-.02s.11,0,.1,0c.06,0,.12,0,.17,0s.11,0,.17,0c.18,0-.09-.03,.07,.01,.13,.03,.26,.07,.38,.11,.2,.06-.08-.04,.03,.01,.07,.03,.14,.07,.2,.11,.04,.02,.07,.05,.11,.07,.04,.02,.07,.05,.11,.07-.07-.05-.07-.05,0,0,.08,.08,.15,.15,.23,.23,.14,.14-.07-.12,.04,.05,.04,.05,.07,.11,.11,.16s.06,.11,.09,.17c.08,.14-.03-.1,.03,.06,.04,.13,.07,.25,.11,.38,0,.03,.02,.14,0,0,0,.09,.01,.18,.02,.27,0,.39,.34,.77,.75,.75s.76-.33,.75-.75c-.02-1.37-.87-2.56-2.14-3.04s-2.72-.06-3.55,.95-1.03,2.55-.32,3.74,2.08,1.76,3.42,1.52c1.5-.27,2.57-1.67,2.59-3.17,0-.39-.35-.77-.75-.75s-.74,.33-.75,.75Z"/></svg>