<?xml version="1.0" encoding="UTF-8"?><svg id="Lag_1" xmlns="http://www.w3.org/2000/svg" viewBox="0 0 95.4 36.93"><defs><style>.cls-1{fill:#1d1d1b;}.cls-2{fill:#010101;}</style></defs><path class="cls-2" d="M1.42,23.84c.17,.04,.38,.17,.56,.18-.31-.02-.4-.18-.22-.09,.06,.03,.11,.05,.17,.08,.12,.06,.23,.12,.34,.18,.47,.26,.92,.55,1.35,.87,.07,.05,.42,.32,.17,.13-.26-.21,.12,.09,.18,.14,.26,.21,.51,.42,.75,.63,.48,.42,.95,.85,1.4,1.3,1.61,1.57,3.11,3.25,4.54,4.98,.3,.37,.6,.73,.89,1.11,.63,.81,2.11,.71,2.76,0,.79-.86,.67-1.89,0-2.76-2.47-3.17-5.24-6.25-8.46-8.69-1.02-.77-2.15-1.49-3.41-1.81-.99-.26-2.16,.33-2.4,1.36s.31,2.12,1.36,2.4h0Z"/><path class="cls-2" d="M20.95,2.54c-.94,1.76-1.57,3.71-2.21,5.59-.91,2.68-1.74,5.39-2.58,8.1-1.57,5.1-2.97,10.3-4.91,15.27-.38,.98,.42,2.14,1.36,2.4,1.1,.3,2.01-.38,2.4-1.36,1.9-4.87,3.28-9.97,4.81-14.96,.82-2.69,1.65-5.37,2.54-8.04,.35-1.06,.72-2.11,1.12-3.15,.35-.91,.34-.97,.83-1.88,1.19-2.21-2.18-4.18-3.37-1.97h0Z"/><path class="cls-2" d="M10.43,3.91c3.55,.36,7.12,.6,10.69,.76,2.69,.12,5.39,.19,8.08,.07,2.09-.09,4.29-.22,6.21-1.1,.96-.44,1.19-1.83,.7-2.67-.58-.99-1.71-1.14-2.67-.7,.56-.26-.45,.12-.67,.18s-.43,.09-.64,.13c-.07,.01-.78,.11-.38,.06-1.08,.14-2.17,.19-3.26,.22-2.63,.08-5.27,0-7.9-.12C17.21,.58,13.81,.35,10.43,0c-1.05-.11-1.95,.97-1.95,1.95,0,1.14,.9,1.84,1.95,1.95h0Z"/><path class="cls-2" d="M22.68,23.83c-.5-12.39,16.91-14.42,17.05-1.38,.52,12.27-16.92,14.27-17.05,1.38Zm3.93-.18c.03,9.01,9.63,7.57,9.19-1.02-.04-9.16-9.62-7.7-9.19,1.02Z"/><path class="cls-2" d="M62.72,30.37c-1.37,3.95-7.22,3.11-7.01-3.3h-.06c-2.3,8.92-13.08,6.61-12.76-2.64-.21-8.61,8.79-15.3,13.18-7.26h.06c-.2-6.04,.24-19.95,5.38-10.86-.12,1.12-6.8,26.88,.79,23.03,.3,.24,.42,.6,.42,1.02Zm-11.37-13.5c-4.77-1.1-6.59,12.92-1.09,12.6,2.4,.51,5.67-5.02,5.56-9.3-1.21-2.28-2.9-3.3-4.47-3.3Z"/><path class="cls-2" d="M64.9,23.83c-.5-12.39,16.91-14.42,17.05-1.38,.52,12.27-16.92,14.27-17.05,1.38Zm3.93-.18c.03,9.01,9.63,7.57,9.19-1.02-.04-9.16-9.62-7.7-9.19,1.02Z"/><path class="cls-1" d="M95.39,27.11c-.04,.92-.26,1.73-.63,2.44-.37,.7-.89,1.29-1.54,1.75-.65,.46-1.42,.8-2.29,1.01-.88,.21-1.84,.29-2.88,.24-.64-.03-1.25-.11-1.82-.24-.58-.13-1.09-.28-1.54-.46-.45-.17-.83-.35-1.15-.54s-.54-.34-.68-.48c-.14-.14-.24-.33-.29-.58-.05-.24-.07-.57-.05-.99,.01-.25,.04-.47,.07-.64,.04-.17,.08-.31,.12-.41,.05-.11,.11-.18,.18-.22,.08-.04,.16-.06,.25-.06,.15,0,.36,.11,.64,.3,.28,.19,.62,.41,1.03,.64,.41,.23,.9,.45,1.46,.66,.56,.21,1.22,.33,1.97,.37,.56,.03,1.07,0,1.53-.11,.46-.1,.86-.25,1.21-.47s.62-.5,.81-.85,.31-.77,.33-1.27c.03-.51-.08-.94-.33-1.3-.24-.36-.57-.68-.99-.97-.41-.29-.88-.55-1.4-.78-.52-.23-1.06-.48-1.62-.73-.55-.26-1.1-.54-1.62-.85-.53-.31-.99-.69-1.4-1.12-.41-.43-.73-.94-.96-1.53-.23-.59-.33-1.28-.29-2.08,.03-.71,.2-1.38,.51-2.01,.31-.63,.74-1.18,1.31-1.64,.57-.46,1.27-.82,2.11-1.07,.83-.25,1.8-.35,2.89-.3,.48,.02,.96,.09,1.43,.19,.48,.1,.91,.22,1.29,.36,.38,.14,.71,.29,.97,.44,.27,.15,.47,.29,.6,.4,.13,.11,.22,.21,.27,.29,.04,.08,.07,.17,.09,.28,.01,.1,.03,.22,.04,.37,.01,.15,.01,.33,0,.54-.01,.23-.03,.42-.06,.59-.03,.17-.07,.3-.12,.41-.05,.1-.11,.18-.18,.22-.07,.04-.14,.06-.22,.06-.12,0-.29-.09-.51-.25-.22-.16-.5-.33-.86-.51-.35-.18-.77-.36-1.25-.53-.48-.17-1.03-.27-1.66-.3-.56-.03-1.06,.01-1.49,.12-.43,.11-.79,.27-1.08,.49-.28,.22-.5,.49-.66,.8-.16,.31-.24,.66-.26,1.03-.03,.52,.09,.96,.33,1.33,.25,.37,.58,.69,1,.98,.41,.29,.89,.55,1.42,.79,.54,.24,1.08,.49,1.64,.74,.56,.26,1.1,.54,1.64,.84,.54,.31,1.01,.67,1.42,1.09,.41,.42,.73,.92,.96,1.49,.23,.57,.33,1.25,.29,2.02Z"/></svg>