<?xml version="1.0" encoding="UTF-8"?><svg id="a" xmlns="http://www.w3.org/2000/svg" viewBox="0 0 95 39"><path d="M1.98,26.38c.17,.04,.38,.17,.56,.18-.31-.02-.4-.18-.22-.09,.06,.03,.11,.05,.17,.08,.12,.06,.23,.12,.34,.18,.47,.26,.92,.55,1.35,.87,.07,.05,.42,.32,.17,.13-.26-.21,.12,.09,.18,.14,.26,.21,.51,.42,.75,.63,.48,.42,.95,.85,1.4,1.3,1.61,1.57,3.11,3.25,4.54,4.98,.3,.37,.6,.73,.89,1.11,.63,.81,2.11,.71,2.76,0,.79-.86,.67-1.89,0-2.76-2.47-3.17-5.24-6.25-8.46-8.69-1.02-.77-2.15-1.49-3.41-1.81-.99-.26-2.16,.33-2.4,1.36s.31,2.12,1.36,2.4h0Z"/><path d="M21.51,5.08c-.94,1.76-1.57,3.71-2.21,5.59-.91,2.68-1.74,5.39-2.58,8.1-1.57,5.1-2.97,10.3-4.91,15.27-.38,.98,.42,2.14,1.36,2.4,1.1,.3,2.01-.38,2.4-1.36,1.9-4.87,3.28-9.97,4.81-14.96,.82-2.69,1.65-5.37,2.54-8.04,.35-1.06,.72-2.11,1.12-3.15,.35-.91,.34-.97,.83-1.88,1.19-2.21-2.18-4.18-3.37-1.97h0Z"/><path d="M11,6.45c3.55,.36,7.12,.6,10.69,.76,2.69,.12,5.39,.19,8.08,.07,2.09-.09,4.29-.22,6.21-1.1,.96-.44,1.19-1.83,.7-2.67-.58-.99-1.71-1.14-2.67-.7,.56-.26-.45,.12-.67,.18s-.43,.09-.64,.13c-.07,.01-.78,.11-.38,.06-1.08,.14-2.17,.19-3.26,.22-2.63,.08-5.27,0-7.9-.12-3.39-.16-6.78-.4-10.16-.74-1.05-.11-1.95,.97-1.95,1.95,0,1.14,.9,1.84,1.95,1.95h0Z"/><g><path d="M23.24,26.37c0-6,4.05-10.44,9.01-10.44,4.41,0,8.04,3.66,8.04,9.06,0,6-4.05,10.32-9.01,10.32-4.41,0-8.04-3.54-8.04-8.94Zm3.93-.18c0,4.2,2,6.12,4.41,6.12,2.72,0,4.78-2.64,4.78-7.14,0-4.2-2-6.24-4.41-6.24-2.72,0-4.78,2.76-4.78,7.26Z"/><path d="M70.7,32.91c0,1.02-1.45,2.4-3.38,2.4-1.81,0-3.39-1.62-3.63-5.7h-.06c-1.09,3.48-3.2,5.7-6.17,5.7-3.75,0-6.59-3.36-6.59-8.34,0-6.12,3.99-10.86,8.1-10.86,2.24,0,3.81,1.26,5.08,3.6h.06c0-5.28,.18-8.34,.54-10.86,.36-2.34,.91-2.82,1.93-2.82,1.15,0,2.9,1.56,2.9,2.82,0,1.02-.54,3.36-1.75,6.72-.3,1.98-.91,7.68-.91,11.94,0,3.72,.67,4.8,1.63,4.8,.79,0,1.33-.18,1.81-.42,.3,.24,.42,.6,.42,1.02Zm-11.37-13.5c-2.42,0-4.53,2.52-4.53,7.08,0,3.84,1.45,5.52,3.45,5.52,2.12,0,4.17-2.28,5.38-7.08l.18-2.22c-1.21-2.28-2.9-3.3-4.47-3.3Z"/><path d="M72.87,26.37c0-6,4.05-10.44,9.01-10.44,4.41,0,8.04,3.66,8.04,9.06,0,6-4.05,10.32-9.01,10.32-4.41,0-8.04-3.54-8.04-8.94Zm3.93-.18c0,4.2,1.99,6.12,4.41,6.12,2.72,0,4.78-2.64,4.78-7.14,0-4.2-2-6.24-4.41-6.24-2.72,0-4.78,2.76-4.78,7.26Z"/></g></svg>