<?xml version="1.0" encoding="UTF-8"?><svg id="Lag_1" xmlns="http://www.w3.org/2000/svg" viewBox="0 0 50 50.03"><defs><style>.cls-1{fill:#b7d8ab;}.cls-2{fill:#010101;}</style></defs><rect class="cls-1" width="50" height="50.03"/><path class="cls-2" d="M9.2,32.87c.17,.04,.38,.17,.56,.18-.31-.02-.4-.18-.22-.09,.06,.03,.11,.05,.17,.08,.12,.06,.23,.12,.34,.18,.47,.26,.92,.55,1.35,.87,.07,.05,.42,.32,.17,.13-.26-.21,.12,.09,.18,.14,.26,.21,.51,.42,.75,.63,.48,.42,.95,.85,1.4,1.3,1.61,1.57,3.11,3.25,4.54,4.98,.3,.37,.6,.73,.89,1.11,.63,.81,2.11,.71,2.76,0,.79-.86,.67-1.89,0-2.76-2.47-3.17-5.24-6.25-8.46-8.69-1.02-.77-2.15-1.49-3.41-1.81-.99-.26-2.16,.33-2.4,1.36s.31,2.12,1.36,2.4h0Z"/><path class="cls-2" d="M28.73,11.57c-.94,1.76-1.57,3.71-2.21,5.59-.91,2.68-1.74,5.39-2.58,8.1-1.57,5.1-2.97,10.3-4.91,15.27-.38,.98,.42,2.14,1.36,2.4,1.1,.3,2.01-.38,2.4-1.36,1.9-4.87,3.28-9.97,4.81-14.96,.82-2.69,1.65-5.37,2.54-8.04,.35-1.06,.72-2.11,1.12-3.15,.35-.91,.34-.97,.83-1.88,1.19-2.21-2.18-4.18-3.37-1.97h0Z"/><path class="cls-2" d="M41.24,9.31c.56-.26-.45,.12-.67,.18s-.43,.09-.64,.13c-.07,.01-.78,.11-.38,.06-1.08,.14-2.17,.19-3.26,.22-2.63,.08-5.27,0-7.9-.12-3.39-.16-6.78-.4-10.16-.74-1.05-.11-1.95,.97-1.95,1.95,0,1.14,.9,1.84,1.95,1.95,3.55,.36,7.12,.6,10.69,.76,2.69,.12,5.39,.19,8.08,.07,2.09-.09,4.29-.22,6.21-1.1,.96-.44,1.19-1.83,.7-2.67-.58-.99-1.71-1.14-2.67-.7h0Z"/></svg>