<?xml version="1.0" encoding="UTF-8"?>
<svg id="Layer_1" data-name="Layer 1" xmlns="http://www.w3.org/2000/svg" viewBox="0 0 120 120">
  <defs>
    <style>
      .cls-1 {
        fill: #261f8b;
      }
    </style>
  </defs>
  <path class="cls-1" d="m60.28,103.09c-10.54-.05-19.88-3.48-27.77-10.19-8.26-7.03-13.24-16-14.78-26.64-1.33-9.18.06-17.78,4.14-25.58,6.68-12.79,17.17-20.55,31.17-23.08,2.55-.46,5.12-.69,7.63-.69,6.8,0,13.49,1.7,19.88,5.06,3.3,1.73,6.41,3.96,9.23,6.61.23.22.54.56.54,1.05,0,.54-.4.9-.54,1.04-1.27,1.17-2.5,2.33-3.62,3.59-.28.32-.6.48-.95.48-.48,0-.79-.3-1-.49-3.24-3.02-7-5.37-11.19-7-4.02-1.56-8.22-2.35-12.48-2.35-1.13,0-2.26.05-3.41.16-8.9.84-16.51,4.61-22.62,11.2-5.07,5.46-8.1,12-9.02,19.44-.88,7.13.3,13.91,3.5,20.16,4.25,8.3,10.89,14.14,19.74,17.36,3.65,1.33,7.48,2,11.38,2,.77,0,1.54-.03,2.31-.08,9.45-.63,17.47-4.45,23.83-11.35,5.3-5.76,8.36-12.62,9.09-20.41.52-5.61-.23-11.04-2.25-16.15-.21-.53-.37-1.24.22-1.99.69-.87,1.37-1.74,2.04-2.62l1.47-1.9c.28-.36.57-.73,1.07-.73.61,0,.87.52,1.1.98,2.31,4.65,3.73,9.69,4.24,14.97.68,7.11-.33,14-3.01,20.48-3.78,9.12-10.12,16.27-18.86,21.25-4.91,2.8-10.44,4.56-16.43,5.23-1.25.14-2.56.21-3.9.21h-.74Z"/>
  <path class="cls-1" d="m88.6,48.72c-7.19,9.29-18.7,26.62-20.5,28.36-4,3.87-9.87,4.26-14.28.88-.74-.57-1.26-1.29-1.8-2.03-4.88-6.7-9.76-13.41-14.64-20.11-.29-.39-.66-.74-.78-1.23-.18-.76-.09-1.47.39-2.12,2.21-2.94,5.95-3.82,9.54-2.24,1.9.84,3.43,2.07,4.63,3.8,2.81,4.06,5.7,8.07,8.55,12.1.59.83.78.85,1.44.03,2.83-3.58,8.98-12.38,12.35-15.96,4.79-5.29,11.81-13.68,21.78-21.73,15.42-12.02,18.51-11.17,18.71-11.29.04.04-16.78,19.11-25.4,31.54Z"/>
</svg>