<?xml version="1.0" encoding="UTF-8"?>
<svg id="Layer_1" data-name="Layer 1" xmlns="http://www.w3.org/2000/svg" viewBox="0 0 180 180">
  <defs>
    <style>
      .cls-1 {
        fill: #261f8b;
      }
    </style>
  </defs>
  <path class="cls-1" d="m89.64,157.46c-16.5-.08-31.13-5.44-43.48-15.95-12.94-11.01-20.73-25.04-23.15-41.71-2.08-14.36.1-27.84,6.47-40.05,10.46-20.02,26.88-32.17,48.8-36.13,4-.72,8.01-1.08,11.95-1.08,10.64,0,21.12,2.66,31.13,7.92,5.17,2.71,10.03,6.19,14.45,10.35.36.34.84.88.84,1.64,0,.84-.62,1.42-.85,1.63-1.99,1.84-3.91,3.65-5.67,5.62-.44.5-.95.75-1.49.75-.75,0-1.24-.47-1.57-.77-5.07-4.73-10.96-8.41-17.52-10.96-6.29-2.44-12.86-3.68-19.55-3.68-1.77,0-3.54.09-5.33.26-13.93,1.32-25.85,7.22-35.42,17.54-7.93,8.55-12.68,18.79-14.12,30.44-1.38,11.16.47,21.78,5.47,31.56,6.66,13,17.05,22.14,30.9,27.17,5.72,2.08,11.72,3.13,17.82,3.13,1.2,0,2.41-.04,3.62-.12,14.8-.99,27.35-6.97,37.3-17.77,8.31-9.01,13.09-19.76,14.23-31.96.82-8.78-.36-17.29-3.52-25.29-.33-.84-.58-1.94.35-3.12,1.08-1.36,2.14-2.73,3.2-4.1l2.3-2.97c.44-.56.89-1.15,1.68-1.15.96,0,1.37.81,1.72,1.53,3.61,7.28,5.85,15.17,6.64,23.44,1.07,11.13-.52,21.92-4.72,32.07-5.91,14.28-15.84,25.47-29.52,33.27-7.69,4.39-16.34,7.14-25.72,8.19-1.95.22-4.01.33-6.11.33h-1.15Z"/>
  <path class="cls-1" d="m133.99,72.34c-11.25,14.54-29.28,41.68-32.1,44.41-6.27,6.05-15.45,6.67-22.36,1.37-1.15-.89-1.98-2.03-2.82-3.18-7.64-10.5-15.28-20.99-22.92-31.48-.45-.62-1.03-1.15-1.21-1.93-.28-1.19-.15-2.29.62-3.31,3.46-4.6,9.31-5.98,14.94-3.5,2.97,1.31,5.38,3.25,7.25,5.95,4.4,6.35,8.92,12.63,13.38,18.94.93,1.31,1.22,1.33,2.25.04,4.44-5.6,14.06-19.39,19.34-24.99,7.5-8.28,18.49-21.42,34.11-34.02,24.14-18.81,28.99-17.48,29.29-17.68.07.06-26.27,29.92-39.76,49.38Z"/>
</svg>