<?xml version="1.0" encoding="UTF-8"?>
<svg id="Layer_1" data-name="Layer 1" xmlns="http://www.w3.org/2000/svg" viewBox="0 0 192 192">
  <defs>
    <style>
      .cls-1 {
        fill: #261f8b;
      }
    </style>
  </defs>
  <path class="cls-1" d="m95.48,169.29c-17.92-.08-33.82-5.91-47.24-17.33-14.06-11.96-22.52-27.21-25.15-45.32-2.26-15.61.1-30.25,7.03-43.51,11.36-21.75,29.2-34.95,53.02-39.25,4.34-.78,8.71-1.18,12.98-1.18,11.56,0,22.94,2.89,33.82,8.6,5.61,2.95,10.9,6.73,15.7,11.25.39.37.91.95.91,1.78,0,.92-.67,1.54-.92,1.77-2.16,2-4.25,3.97-6.16,6.1-.48.54-1.03.82-1.62.82-.81,0-1.35-.51-1.7-.84-5.51-5.14-11.9-9.13-19.04-11.91-6.83-2.66-13.98-4-21.24-4-1.92,0-3.85.09-5.79.28-15.13,1.43-28.08,7.84-38.48,19.05-8.62,9.29-13.78,20.42-15.34,33.08-1.49,12.13.51,23.67,5.95,34.29,7.23,14.13,18.53,24.06,33.57,29.52,6.21,2.26,12.73,3.4,19.36,3.4,1.31,0,2.62-.04,3.94-.13,16.08-1.08,29.72-7.57,40.53-19.31,9.02-9.79,14.23-21.47,15.46-34.72.89-9.54-.39-18.79-3.83-27.47-.36-.91-.63-2.11.38-3.39,1.18-1.48,2.33-2.97,3.48-4.46l2.5-3.23c.48-.61.97-1.25,1.83-1.25,1.05,0,1.48.88,1.87,1.66,3.92,7.91,6.35,16.48,7.22,25.46,1.16,12.09-.56,23.81-5.13,34.84-6.43,15.51-17.21,27.67-32.07,36.15-8.35,4.77-17.76,7.76-27.94,8.9-2.12.24-4.36.36-6.64.36h-1.25Z"/>
  <path class="cls-1" d="m143.65,76.81c-12.23,15.8-31.81,45.29-34.88,48.25-6.81,6.58-16.79,7.25-24.29,1.49-1.25-.96-2.15-2.2-3.06-3.45-8.3-11.4-16.6-22.8-24.9-34.21-.49-.67-1.12-1.25-1.32-2.1-.31-1.29-.16-2.49.67-3.6,3.75-5,10.12-6.49,16.23-3.8,3.23,1.42,5.84,3.53,7.88,6.46,4.79,6.9,9.69,13.72,14.54,20.58,1.01,1.42,1.33,1.45,2.44.04,4.82-6.09,15.27-21.07,21.01-27.15,8.15-9,20.08-23.27,37.05-36.96,26.23-20.44,31.49-19,31.82-19.2.07.07-28.54,32.51-43.2,53.65Z"/>
</svg>