<?xml version="1.0" encoding="UTF-8"?>
<svg id="Layer_1" data-name="Layer 1" xmlns="http://www.w3.org/2000/svg" viewBox="0 0 512 512">
  <defs>
    <style>
      .cls-1 {
        fill: #261f8b;
      }
    </style>
  </defs>
  <path class="cls-1" d="m256.15,452.77c-48.12-.22-90.81-15.88-126.84-46.53-37.75-32.11-60.46-73.06-67.52-121.68-6.07-41.9.28-81.21,18.89-116.82,30.51-58.39,78.4-93.85,142.34-105.39,11.65-2.1,23.38-3.16,34.85-3.16,31.04,0,61.59,7.77,90.81,23.09,15.07,7.91,29.26,18.07,42.15,30.2,1.06.99,2.45,2.56,2.45,4.78-.01,2.46-1.81,4.13-2.48,4.75-5.8,5.36-11.42,10.65-16.53,16.38-1.29,1.45-2.76,2.19-4.36,2.19-2.18,0-3.62-1.36-4.58-2.26-14.79-13.8-31.96-24.52-51.11-31.97-18.35-7.13-37.52-10.74-57.02-10.74-5.15,0-10.34.25-15.56.75-40.63,3.84-75.4,21.05-103.32,51.16-23.14,24.94-37,54.82-41.19,88.8-4.01,32.57,1.36,63.54,15.97,92.05,19.42,37.93,49.75,64.59,90.14,79.26,16.68,6.06,34.18,9.13,51.99,9.13,3.51,0,7.04-.12,10.57-.36,43.17-2.89,79.78-20.34,108.82-51.85,24.23-26.29,38.19-57.65,41.51-93.22,2.39-25.61-1.06-50.44-10.27-73.76-.96-2.44-1.7-5.67,1.03-9.11,3.16-3.96,6.24-7.96,9.33-11.96l6.72-8.67c1.28-1.64,2.61-3.34,4.9-3.34,2.81,0,3.98,2.37,5.01,4.47,10.53,21.24,17.05,44.24,19.38,68.37,3.12,32.46-1.51,63.94-13.77,93.55-17.25,41.64-46.22,74.3-86.11,97.06-22.42,12.8-47.68,20.84-75.02,23.89-5.7.64-11.7.97-17.83.97l-3.37-.03Z"/>
  <path class="cls-1" d="m385.5,204.47c-32.83,42.41-85.42,121.59-93.64,129.54-18.28,17.66-45.07,19.46-65.21,4.01-3.37-2.58-5.77-5.91-8.21-9.26-22.28-30.62-44.56-61.23-66.85-91.84-1.31-1.8-3-3.37-3.54-5.63-.83-3.47-.43-6.69,1.8-9.67,10.08-13.42,27.17-17.43,43.58-10.21,8.67,3.82,15.68,9.47,21.15,17.35,12.85,18.53,26.01,36.84,39.04,55.24,2.7,3.81,3.57,3.89,6.56.12,12.94-16.34,41.01-56.56,56.4-72.9,21.88-24.16,53.92-62.48,99.49-99.24,70.42-54.88,84.55-51,85.43-51.56.2.18-76.63,87.29-115.98,144.05Z"/>
</svg>