<?xml version="1.0" encoding="UTF-8"?>
<svg id="Layer_1" data-name="Layer 1" xmlns="http://www.w3.org/2000/svg" viewBox="0 0 64 64">
  <defs>
    <style>
      .cls-1 {
        fill: #261f8b;
      }
    </style>
  </defs>
  <path class="cls-1" d="m31.45,56.99c-3.06-.01-5.94-.52-8.63-1.51s-5.19-2.46-7.48-4.4c-2.4-2.04-4.32-4.36-5.75-6.94s-2.38-5.43-2.83-8.51c-.39-2.66-.38-5.24.02-7.72s1.19-4.86,2.38-7.12c1.94-3.71,4.43-6.69,7.45-8.92s6.57-3.73,10.63-4.46c.74-.13,1.48-.23,2.22-.3s1.48-.1,2.2-.1c1.97,0,3.93.25,5.85.74s3.82,1.22,5.68,2.2c.96.5,1.89,1.08,2.78,1.72s1.75,1.35,2.57,2.12c.07.06.14.14.21.25s.1.22.1.36c0,.16-.06.29-.13.39s-.15.17-.19.21c-.37.34-.73.68-1.08,1.02s-.69.69-1.02,1.06c-.08.09-.17.16-.26.21s-.19.07-.29.07c-.14,0-.25-.04-.35-.1s-.17-.13-.23-.19c-.94-.88-1.95-1.65-3.04-2.33s-2.24-1.25-3.45-1.73c-1.17-.45-2.36-.79-3.57-1.02s-2.44-.34-3.68-.34c-.33,0-.66,0-.98.02s-.66.04-.99.07c-2.58.24-4.97.91-7.17,2s-4.18,2.59-5.96,4.5c-1.47,1.58-2.64,3.32-3.52,5.21s-1.45,3.91-1.71,6.07c-.25,2.07-.21,4.09.13,6.04s.97,3.84,1.9,5.65c1.23,2.41,2.81,4.46,4.73,6.14s4.16,2.99,6.72,3.93c1.06.38,2.14.67,3.25.87s2.22.29,3.36.29c.22,0,.45,0,.67-.01s.45-.02.67-.03c2.74-.18,5.28-.83,7.58-1.93s4.39-2.65,6.24-4.66c1.54-1.67,2.75-3.5,3.63-5.48s1.43-4.1,1.64-6.36c.15-1.63.12-3.23-.1-4.79s-.62-3.09-1.2-4.58c-.06-.15-.11-.33-.11-.53s.07-.41.24-.63c.2-.25.4-.5.6-.76s.39-.51.59-.76l.43-.55.43-.55c.08-.1.16-.21.26-.29s.21-.13.36-.13c.18,0,.3.08.4.18s.17.25.23.38c.67,1.35,1.21,2.75,1.62,4.2s.69,2.95.84,4.48c.2,2.06.15,4.09-.14,6.08s-.83,3.92-1.61,5.8c-1.1,2.64-2.56,5-4.39,7.06s-4.01,3.82-6.55,5.26c-1.42.81-2.94,1.47-4.53,1.98s-3.26.86-5,1.05c-.36.04-.73.07-1.11.09s-.76.03-1.15.03h-.21s-.21,0-.21,0Z"/>
  <path class="cls-1" d="m47.88,25.46c-2.08,2.69-4.8,6.55-7.12,9.87s-4.25,6.08-4.78,6.58c-1.16,1.12-2.59,1.74-4.05,1.83s-2.95-.34-4.23-1.32c-.21-.16-.4-.35-.57-.55s-.32-.41-.48-.63c-1.41-1.94-2.83-3.89-4.24-5.83s-2.83-3.89-4.25-5.83c-.08-.11-.18-.22-.26-.34s-.15-.24-.19-.38c-.05-.22-.07-.43-.03-.64s.12-.4.26-.59c.64-.85,1.5-1.41,2.47-1.63s2.03-.12,3.07.33c.55.24,1.05.54,1.5.91s.84.79,1.19,1.3c.82,1.18,1.64,2.35,2.47,3.51s1.66,2.33,2.49,3.5c.17.24.28.37.4.37s.24-.11.43-.35c.82-1.04,2.12-2.83,3.47-4.63s2.72-3.59,3.7-4.63c1.39-1.53,3.1-3.52,5.19-5.7s4.55-4.57,7.45-6.9c4.47-3.49,7.16-5.1,8.74-5.86s2.06-.65,2.11-.69c.01.01-2.42,2.78-5.48,6.45s-6.75,8.24-9.25,11.84Z"/>
</svg>