<?xml version="1.0" encoding="UTF-8"?>
<svg id="Layer_1" data-name="Layer 1" xmlns="http://www.w3.org/2000/svg" viewBox="0 0 50 50">
  <path d="m17.65,22.7c1.5,0,2.92,0,4.5,0,6.52,0,13.03,0,19.55,0,.63,0,.79.16.79.79,0,1.03,0,2.06,0,3.09,0,.57-.18.74-.75.74-7.47,0-14.94,0-22.41,0-.56,0-1.13,0-1.73.09.25.21.51.42.76.62,1.37,1.11,2.75,2.22,4.12,3.34.49.4.5.53.11,1.01-.69.85-1.37,1.7-2.06,2.54-.34.41-.5.43-.92.09-3.94-3.19-7.89-6.38-11.83-9.57-.41-.33-.41-.54.01-.88,3.94-3.19,7.88-6.38,11.82-9.57.41-.33.57-.31.91.11.69.85,1.37,1.69,2.06,2.54.38.47.37.61-.09.98-1.4,1.13-2.79,2.26-4.19,3.39-.24.19-.47.39-.71.58,0,.03.02.07.03.1Z"/>
</svg>