<?xml version="1.0" encoding="UTF-8"?>
<svg id="Layer_1" data-name="Layer 1" xmlns="http://www.w3.org/2000/svg" viewBox="0 0 50 50">
  <path d="m7.5,12.04v-.82c.1-.32.26-.6.5-.84.78-.78,1.56-1.56,2.34-2.34.38-.38.85-.56,1.39-.53.57.02.97.34,1.35.72,3.89,3.9,7.79,7.79,11.68,11.68q.33.33.66,0c2.35-2.35,4.7-4.7,7.05-7.05,1.51-1.51,3.02-3.03,4.54-4.54.79-.79,1.8-.83,2.59-.09.82.77,1.61,1.58,2.4,2.38.36.37.51.82.49,1.34-.03.56-.33.97-.71,1.35-3.83,3.83-7.66,7.66-11.49,11.49q-.33.33,0,.66c1.06,1.06,2.12,2.12,3.19,3.18,2.79,2.78,5.58,5.56,8.36,8.34.89.89.89,1.9,0,2.79-.67.68-1.36,1.35-2.02,2.03-.3.31-.63.55-1.04.69h-.89c-.4-.15-.73-.41-1.03-.71-3.79-3.8-7.59-7.59-11.38-11.38-.44-.44-.35-.41-.75-.01-3.8,3.79-7.59,7.59-11.38,11.38-.31.31-.65.57-1.06.72h-.89c-.39-.14-.72-.38-1.01-.68-.66-.67-1.33-1.33-2-2-.93-.94-.93-1.92,0-2.86,3.81-3.83,7.62-7.66,11.43-11.48q.36-.37,0-.73c-3.87-3.87-7.73-7.74-11.6-11.6-.32-.32-.6-.65-.72-1.1Z"/>
</svg>