<?xml version="1.0" encoding="UTF-8"?>
<svg id="Layer_1" data-name="Layer 1" xmlns="http://www.w3.org/2000/svg" viewBox="0 0 50 50">
  <path d="m25.02,18.96c3.19,0,6.39,0,9.58,0,1.44,0,1.91.55,1.81,2.01-.36,5.22-.69,10.45-1.08,15.67-.07.92-.2,1.9-.57,2.73-.92,2.04-2.7,3-4.85,3.07-3.26.1-6.53.09-9.79,0-3.14-.08-5.23-2.22-5.44-5.35-.37-5.46-.74-10.92-1.11-16.37-.08-1.15.49-1.75,1.67-1.75,3.26,0,6.53,0,9.79,0Zm6.33,10.09c.11-2.16.18-2.45.18-4.33,0-.67-.38-1.13-.92-1.1-.61.04-.92.41-.94,1.02,0,.09-.01.19-.01.28-.11,3.62-.23,7.23-.33,10.85-.02.8.31,1.23.92,1.23.58,0,.92-.39.93-1.16.02-1.83.03-4.37.18-6.8Zm-10.84,1.38c-.05-2.2-.16-3.8-.18-5.69,0-.74-.4-1.15-.97-1.12-.57.03-.9.47-.88,1.21.11,3.68.23,7.36.35,11.03.03.77.36,1.15.94,1.15.61,0,.92-.44.92-1.23,0-1.78-.17-3.56-.17-5.34Zm5.42-.15c0-1.81,0-3.62,0-5.43,0-.8-.34-1.24-.92-1.25-.59,0-.93.44-.93,1.24,0,3.64,0,7.28,0,10.92,0,.82.31,1.23.92,1.24.61,0,.93-.41.93-1.22,0-1.83,0-3.66,0-5.5Z"/>
  <path d="m19.63,11.69c.07-.34.11-.62.18-.89.46-1.86,2.03-3.18,3.94-3.27.84-.04,1.69-.04,2.54,0,2.16.11,3.59,1.55,4.1,4.16.91,0,1.84,0,2.77,0,2.63.02,4.23,1.66,4.21,4.31,0,.77-.29,1.08-1.05,1.08-7.54,0-15.08,0-22.62,0-.73,0-1.01-.31-1.03-1.04-.06-2.67,1.56-4.34,4.23-4.36.91,0,1.82,0,2.75,0Zm2.68-.07h5.4c-.25-1.01-.74-1.46-1.66-1.51-.7-.03-1.4-.03-2.1,0-.92.05-1.41.51-1.64,1.5Z"/>
</svg>