<?xml version="1.0" encoding="UTF-8"?>
<svg id="Layer_1" data-name="Layer 1" xmlns="http://www.w3.org/2000/svg" viewBox="0 0 50 50">
  <rect x="10.61" y="20.4" width="26.37" height="11.51" transform="translate(-11.53 24.49) rotate(-44.99)"/>
  <path d="m38.62,19.59c-2.76-2.76-5.47-5.48-8.3-8.31.3-.25.63-.5.93-.78.83-.81,1.68-1.62,2.47-2.47.67-.72,1.7-.92,2.62.04,1.3,1.34,2.68,2.59,3.87,4.04.41.49.9.89,1.4,1.29,1.16.92,1.28,1.9.35,2.83-1.11,1.12-2.22,2.23-3.35,3.35Z"/>
  <path d="m7.59,41.61l1.54-8.88,8.1,8.12-8.84,1.55c-.47.08-.87-.32-.79-.79Z"/>
</svg>