<?xml version="1.0" encoding="UTF-8"?>
<svg id="Layer_1" data-name="Layer 1" xmlns="http://www.w3.org/2000/svg" viewBox="0 0 50 50">
  <path d="m31.51,28.45h2.34v12.16h-9.39v1.89c-4.1-.98-8.17-1.95-12.2-2.91V10.4c4-.96,8.05-1.92,12.14-2.9v1.9h9.45v12.14h-2.33v-9.79h-7.04v26.47h7.03v-9.77Z"/>
  <path d="m28.94,23.91c.53,0,1.03,0,1.59,0,2.31,0,4.61,0,6.92,0,.22,0,.28.08.28.38,0,.49,0,.98,0,1.47,0,.27-.06.35-.27.35-2.64,0-5.28,0-7.93,0-.2,0-.4,0-.61.04.09.1.18.2.27.3.49.53.97,1.06,1.46,1.59.17.19.18.25.04.48-.24.4-.49.81-.73,1.21-.12.2-.18.2-.32.04-1.39-1.52-2.79-3.03-4.18-4.55-.14-.16-.14-.26,0-.42,1.39-1.52,2.79-3.03,4.18-4.55.15-.16.2-.15.32.05.24.4.49.81.73,1.21.13.22.13.29-.03.47-.49.54-.99,1.08-1.48,1.61-.08.09-.17.18-.25.28,0,.02,0,.03.01.05Z"/>
</svg>