<?xml version="1.0" encoding="UTF-8"?>
<svg id="Layer_1" data-name="Layer 1" xmlns="http://www.w3.org/2000/svg" viewBox="0 0 50 50">
  <defs>
    <style>
      .cls-1 {
        stroke: #000;
        stroke-miterlimit: 10;
        stroke-width: .75px;
      }
    </style>
  </defs>
  <rect x="15.08" y="13.77" width="27.42" height="4.69" rx=".81" ry=".81"/>
  <rect x="15.08" y="23.17" width="27.42" height="4.69" rx=".81" ry=".81"/>
  <rect x="15.08" y="32.58" width="27.42" height="4.69" rx=".81" ry=".81"/>
  <rect class="cls-1" x="8.54" y="23.54" width="3.96" height="3.96" rx=".81" ry=".81"/>
  <rect class="cls-1" x="8.54" y="32.94" width="3.96" height="3.96" rx=".81" ry=".81"/>
  <path d="m9.92,18.73c-.32,0-.62-.1-.88-.3-.13-.1-.21-.21-.26-.27l-1.1-1.51s-.12-.14-.16-.31c-.06-.25-.01-.49.13-.69.23-.31.58-.48.96-.48.18,0,.35.04.52.11.25.11.46.28.61.51l.18.26c.18-.24.37-.48.5-.62l.15-.17c.34-.38.85-.96,1.54-1.52,1.13-.88,1.52-.96,1.69-.99,0,0,.12-.02.12-.02.06,0,.1,0,.14.01l.21.11s.07.06.1.09c.09.1.14.21.16.33.04.21-.05.43-.24.64-.15.16-.71.84-1.77,2.2-.28.36-.63.86-.93,1.29-.43.62-.57.81-.67.91-.28.27-.64.41-1.01.41Z"/>
</svg>