<?xml version="1.0" encoding="UTF-8"?>
<svg id="Layer_2" data-name="Layer 2" xmlns="http://www.w3.org/2000/svg" viewBox="0 0 35 33.08">
  <g id="Layer_1-2" data-name="Layer 1">
    <rect width="20.65" height="3.53" rx=".81" ry=".81"/>
    <rect y="11.1" width="20.65" height="3.53" rx=".81" ry=".81"/>
    <rect y="22.2" width="13.27" height="3.53" rx=".81" ry=".81"/>
    <path d="m34.36,22.2h-6.71v-6.71c0-.35-.29-.64-.64-.64h-2.25c-.35,0-.64.29-.64.64v6.71h-6.71c-.35,0-.64.29-.64.64v2.25c0,.35.29.64.64.64h6.71v6.71c0,.35.29.64.64.64h2.25c.35,0,.64-.29.64-.64v-6.71h6.71c.35,0,.64-.29.64-.64v-2.25c0-.35-.29-.64-.64-.64Z"/>
  </g>
</svg>