<?xml version="1.0" encoding="UTF-8"?>
<svg id="Layer_1" data-name="Layer 1" xmlns="http://www.w3.org/2000/svg" viewBox="0 0 50 50">
  <path d="m25.03,37.43c-3.77,0-7.54,0-11.3,0-1.4,0-2.34-1.21-1.9-2.47.11-.31.32-.6.56-.83.45-.46.95-.87,1.44-1.29.2-.17.28-.35.28-.62,0-3.62,0-7.24,0-10.87,0-4.94,3.34-9.25,8.12-10.51.25-.06.49-.14.75-.16.3-.02.35-.17.34-.43-.02-.35-.01-.7,0-1.06.02-.93.73-1.66,1.63-1.68.94-.03,1.69.63,1.76,1.58.03.34.04.68,0,1.02-.04.39.09.53.48.61,2.35.47,4.34,1.6,5.93,3.39,1.81,2.03,2.76,4.42,2.78,7.14.03,3.65.01,7.29,0,10.94,0,.28.06.48.28.66.46.38.89.79,1.34,1.18.72.64.93,1.42.62,2.22-.29.75-.99,1.18-1.92,1.18-3.73,0-7.46,0-11.19,0Z"/>
  <path d="m21.27,38.77h7.43c.2,1.8-1.53,3.63-3.48,3.72-2.16.1-3.99-1.6-3.95-3.72Z"/>
</svg>