<?xml version="1.0" encoding="UTF-8"?>
<svg id="Layer_1" data-name="Layer 1" xmlns="http://www.w3.org/2000/svg" viewBox="0 0 50 50">
  <path d="m7.96,30.28c.04-.34.2-.56.44-.75,1.13-.88,2.25-1.76,3.38-2.63.17-.13.23-.26.2-.48-.13-.97-.12-1.95.01-2.93.02-.15-.02-.23-.14-.32-1.13-.88-2.26-1.77-3.39-2.65-.53-.41-.61-.8-.28-1.38,1.13-1.95,2.26-3.91,3.38-5.86.28-.49.69-.62,1.22-.41,1.34.54,2.67,1.07,4.01,1.61.18.07.3.06.46-.06.79-.59,1.64-1.09,2.55-1.48.14-.06.19-.13.21-.27.2-1.4.4-2.79.6-4.19.01-.08.02-.16.04-.24.07-.45.4-.74.85-.74,2.34,0,4.68,0,7.02,0,.45,0,.79.27.86.73.2,1.32.4,2.64.56,3.97.06.46.2.72.65.94.78.37,1.5.86,2.23,1.32.14.09.24.1.38.04,1.34-.54,2.69-1.08,4.03-1.62.54-.21.95-.07,1.23.42,1.13,1.96,2.27,3.92,3.4,5.88.29.51.21.94-.25,1.3-1.14.89-2.28,1.79-3.43,2.68-.13.1-.17.19-.15.35.13,1,.13,2,0,2.99-.02.16.02.24.14.34,1.13.87,2.25,1.76,3.38,2.63.54.42.62.82.27,1.42-1.1,1.91-2.21,3.81-3.31,5.72-.37.63-.7.75-1.37.48-1.32-.53-2.63-1.06-3.95-1.59-.15-.06-.25-.06-.38.04-.82.61-1.69,1.12-2.63,1.53-.07.03-.15.14-.17.22-.21,1.43-.43,2.85-.61,4.28-.08.63-.46.94-1.06.93-2.26-.02-4.53,0-6.79,0-.53,0-.84-.26-.92-.78-.21-1.43-.42-2.85-.61-4.28-.03-.21-.1-.33-.31-.42-.89-.37-1.72-.87-2.49-1.45-.14-.11-.25-.13-.42-.06-1.31.54-2.63,1.06-3.94,1.59-.63.25-1.01.12-1.35-.46-1.12-1.93-2.24-3.86-3.35-5.8-.1-.17-.14-.37-.21-.55Zm23.17-5.27c0-3.37-2.75-6.12-6.11-6.12-3.33,0-6.08,2.73-6.12,6.01-.04,3.38,2.68,6.13,5.95,6.22,3.34.09,6.27-2.59,6.28-6.11Z"/>
</svg>