<?xml version="1.0" encoding="UTF-8"?>
<svg id="Layer_1" data-name="Layer 1" xmlns="http://www.w3.org/2000/svg" viewBox="0 0 50 50">
  <rect x="7.5" y="38" width="35" height="4.82" rx=".81" ry=".81"/>
  <rect x=".88" y="31.38" width="18.05" height="4.82" rx=".81" ry=".81" transform="translate(-23.88 43.71) rotate(-90)"/>
  <rect x="31.06" y="31.38" width="18.05" height="4.82" rx=".81" ry=".81" transform="translate(6.29 73.88) rotate(-90)"/>
  <rect x="7.5" y="24.77" width="12.2" height="4.82" rx=".81" ry=".81"/>
  <path d="m27.64,18.05c0,1.61,0,3.12,0,4.83,0,6.98,0,5.95,0,12.94,0,.67-.19.85-.91.85-1.18,0-2.36,0-3.54,0-.65,0-.85-.2-.85-.8q0-8,0-16c0-.6,0-1.21-.11-1.85-.24.27-.48.55-.72.82-1.27,1.47-2.55,2.94-3.82,4.41-.46.53-.61.54-1.16.12-.97-.74-1.95-1.47-2.91-2.21-.47-.36-.49-.53-.11-.98,3.66-4.22,7.31-8.45,10.97-12.67.38-.44.62-.44,1,.01,3.66,4.22,7.31,8.44,10.97,12.67.38.44.36.61-.12.98-.97.74-1.94,1.47-2.92,2.21-.54.41-.69.4-1.12-.1-1.3-1.5-2.59-2.99-3.89-4.49-.22-.25-.44-.51-.66-.76-.04.01-.08.02-.12.03Z"/>
  <rect x="30.3" y="24.77" width="12.2" height="4.82" rx=".81" ry=".81"/>
</svg>