<?xml version="1.0" encoding="UTF-8"?>
<svg id="Layer_2" data-name="Layer 2" xmlns="http://www.w3.org/2000/svg" viewBox="0 0 35 34.52">
  <g id="Layer_1-2" data-name="Layer 1">
    <g>
      <rect x="8.63" y="2.07" width="26.37" height="3.56" rx=".81" ry=".81"/>
      <rect x="1.12" y="16.17" width="4.51" height="4.51" rx=".81" ry=".81"/>
      <rect x="1.19" y="30.01" width="4.51" height="4.51" rx=".81" ry=".81"/>
      <path d="m2.76,6.83c-.36,0-.71-.12-1-.34-.14-.11-.24-.24-.29-.31L.21,4.45s-.14-.16-.18-.35c-.07-.28-.01-.56.15-.78.26-.35.66-.55,1.09-.55.2,0,.4.04.59.13.29.13.52.32.7.58l.21.3c.21-.28.42-.55.57-.71l.17-.19c.39-.44.97-1.1,1.76-1.73C6.56.14,7,.05,7.19.02c0,0,.14-.02.14-.02.07,0,.11,0,.16.02l.24.12s.08.07.11.1c.1.11.16.24.19.37.04.24-.05.49-.27.73-.17.19-.81.95-2.02,2.51-.32.41-.72.98-1.06,1.47-.49.71-.65.93-.77,1.04-.32.3-.72.47-1.15.47Z"/>
      <path d="m2.76,6.49c-.29,0-.56-.1-.79-.27-.11-.08-.18-.19-.22-.24l-1.25-1.72s-.1-.12-.13-.23c-.04-.18-.01-.36.1-.5.19-.26.49-.41.81-.41.15,0,.31.03.45.1.23.1.42.25.55.46l.21.3h.55c.2-.26.4-.52.55-.67l.17-.19c.38-.43.95-1.07,1.72-1.69,1.22-.95,1.62-1.03,1.77-1.05h.11s.21.09.21.09c.07.09.1.15.11.22.02.13-.04.28-.19.44-.18.19-.83.97-2.04,2.53-.3.39-.67.91-.99,1.37l-.07.11c-.45.64-.63.9-.73.99-.25.24-.58.38-.91.38Z"/>
      <rect x="8.57" y="16.65" width="26.37" height="3.56" rx=".81" ry=".81"/>
      <rect x="8.63" y="30.49" width="26.37" height="3.56" rx=".81" ry=".81"/>
    </g>
  </g>
</svg>